<?xml version="1.0" encoding="UTF-8" standalone="no"?>
<svg
   viewBox="0 0 16 16"
   version="1.1"
   id="svg1062"
   sodipodi:docname="Recipient.svg"
   inkscape:version="1.1.1 (3bf5ae0d25, 2021-09-20)"
   xmlns:inkscape="http://www.inkscape.org/namespaces/inkscape"
   xmlns:sodipodi="http://sodipodi.sourceforge.net/DTD/sodipodi-0.dtd"
   xmlns="http://www.w3.org/2000/svg"
   xmlns:svg="http://www.w3.org/2000/svg">
  <defs
     id="defs1066" />
  <sodipodi:namedview
     id="namedview1064"
     pagecolor="#505050"
     bordercolor="#eeeeee"
     borderopacity="1"
     inkscape:pageshadow="0"
     inkscape:pageopacity="0"
     inkscape:pagecheckerboard="0"
     showgrid="false"
     inkscape:zoom="50.9375"
     inkscape:cx="8.2944785"
     inkscape:cy="8"
     inkscape:window-width="1920"
     inkscape:window-height="1015"
     inkscape:window-x="0"
     inkscape:window-y="0"
     inkscape:window-maximized="1"
     inkscape:current-layer="svg1062" />
  <path
     fill="#FFE6BB"
     d="M8 1l7 5v9H1V6l7-5z"
     id="path1048" />
  <path
     fill="#E8A33D"
     d="M8 2.2l6 4.3V14H2V6.5l6-4.3M8 1L1 6v9h14V6L8 1z"
     id="path1050" />
  <path
     fill="#FFF"
     d="M3 3h10v10H3z"
     id="path1052" />
  <path
     fill="#666"
     d="M12 4v8H4V4h8m1-1H3v10h10V3z"
     id="path1054" />
  <path
     fill="#B9B9B9"
     d="M5 7h6v1H5zM5 5h6v1H5zM5 9h6v1H5z"
     id="path1056" />
  <path
     fill="#FFC857"
     d="M15 6v9H1V6l7 5 7-5z"
     id="path1058" />
  <path
     fill="#E8A33D"
     d="M8 11L1 6v9h14V6l-7 5zM2 7.9l3.5 2.5L2 14V7.9zM3.4 14l2.9-2.9L8 12.2 9.6 11l2.9 2.9H3.4zm7.1-3.5L14 7.9V14l-3.5-3.5z"
     id="path1060" />
  <g
     id="g1232"
     transform="matrix(0.82442336,0,0,0.84100003,6.7557664,6.5899997)">
    <path
       fill="#666666"
       d="M 5.725,0 H 5.275 C 3.818,0 2.588,1.205 2.588,2.631 v 1.237 c 0,0.649 0.287,1.38 0.769,1.99 A 3.108,3.108 0 0 1 3.313,6.159 L 3.025,6.286 C 2.584,6.482 2.129,6.684 1.569,6.844 L 1.453,6.877 1.348,6.937 C 1.135,7.059 0,7.809 0,10 v 1 H 11 V 10 C 11,7.725 9.825,7.022 9.604,6.912 L 9.52,6.87 9.431,6.844 C 8.869,6.684 8.412,6.48 7.97,6.284 L 7.715,6.171 A 3.819,3.819 0 0 1 7.662,5.833 C 8.132,5.227 8.413,4.506 8.413,3.867 V 2.631 C 8.412,1.156 7.232,0 5.725,0 Z"
       id="path1226" />
    <path
       fill="#ffc857"
       d="M 9.156,7.806 C 8.207,7.535 7.544,7.164 6.884,6.91 6.821,6.703 6.67,6.336 6.634,5.492 7.088,5.035 7.413,4.389 7.413,3.869 V 2.631 C 7.413,1.731 6.682,1 5.725,1 H 5.275 C 4.375,1 3.587,1.731 3.587,2.631 v 1.237 c 0,0.525 0.329,1.177 0.789,1.635 C 4.361,6.332 4.205,6.697 4.131,6.904 3.465,7.158 2.8,7.533 1.844,7.806 1.844,7.806 1.057,8.256 1,10 h 9 C 9.944,8.2 9.156,7.806 9.156,7.806 Z"
       id="path1228" />
    <path
       fill="#79a548"
       d="M 9.156,7.806 C 8.206,7.535 7.544,7.164 6.883,6.909 6.923,7.04 6.93,7.106 6.849,7.187 6.174,7.918 4.768,7.862 4.149,7.187 4.067,7.105 4.083,7.038 4.132,6.903 3.466,7.157 2.8,7.532 1.843,7.806 c 0,0 -0.787,0.45 -0.844,2.194 H 10 C 9.944,8.2 9.156,7.806 9.156,7.806 Z"
       id="path1230" />
  </g>
</svg>
